# xmcd
#
# Track frame offsets: 
#        150
#        25474
#        51341
#        72271
#        96934
#        115620
#        136697
#        165474
#        190117
#        212057
#        233060
#        261474
#
# Disc length: 3764 seconds
#
# Revision: 2
# Processed by: cddbd v1.5.2PL0 Copyright (c) Steve Scherf et al.
# Submitted via: ExactAudioCopy v1.0b3
#
DISCID=a60eb20c
DTITLE=Orquesta La Palabra - Breakthrough
DYEAR=2003
DGENRE=Salsa
TTITLE0=El Temblor
TTITLE1=Ahe Ahe
TTITLE2=Cama y Mesa
TTITLE3=Se Nos Fué
TTITLE4=CubanJam.com (DescargaCubana.com)
TTITLE5=I´m going to Shenzhen (English Version)
TTITLE6=El Tún Tún (de Tu Corazón)
TTITLE7=Mi Nueva York
TTITLE8=Salsera
TTITLE9=Y Yo Va Pa´ Shenzhen (Spanish Version)
TTITLE10=Feelings
TTITLE11=La Bikina
EXTD=YEAR: 2003
EXTT0=
EXTT1=
EXTT2=
EXTT3=
EXTT4=
EXTT5=
EXTT6=
EXTT7=
EXTT8=
EXTT9=
EXTT10=
EXTT11=
PLAYORDER=
